# xmcd CD database file
#
# Track frame offsets:
#	182
#	3625
#	5337
#	7047
#	32520
#	36282
#	40877
#	43057
#	51417
#	65265
#	68922
#	90692
#	107425
#	108777
#	126155
#	127585
#	151065
#	172385
#	174902
#	175980
#	180055
#	184032
#	186885
#	191690
#	211480
#	223042
#
# Disc length: 3037 seconds
#
# Revision: 0
# Processed by: cddbd v1.4PL0 Copyright (c) Steve Scherf et al.
# Submitted via: CDex 1.50beta10
#
DISCID=5b0bdb1a
DTITLE=Yves Robert - Tout court
DYEAR=1991
DGENRE=Jazz
TTITLE0=Prologue
TTITLE1=A boire
TTITLE2=Mue
TTITLE3=Goupil
TTITLE4=Panache
TTITLE5=Racle Plectre
TTITLE6=Lachez les chiens
TTITLE7=Bariol
TTITLE8=Slapos
TTITLE9=Dextre
TTITLE10=Couine le sommier
TTITLE11=Clopodoi lézieudou
TTITLE12=Moufle
TTITLE13=Périple
TTITLE14=Doigt
TTITLE15=Des grelots sur le béret
TTITLE16=Hurtebille
TTITLE17=Prolixe
TTITLE18=Ravi
TTITLE19=Vol(e)
TTITLE20=Possession
TTITLE21=Satisf
TTITLE22=Bascul
TTITLE23=Jubile
TTITLE24=Mobilit
TTITLE25=Epilogue
EXTD=YEAR: 1991
EXTT0=
EXTT1=
EXTT2=
EXTT3=
EXTT4=
EXTT5=
EXTT6=
EXTT7=
EXTT8=
EXTT9=
EXTT10=
EXTT11=
EXTT12=
EXTT13=
EXTT14=
EXTT15=
EXTT16=
EXTT17=
EXTT18=
EXTT19=
EXTT20=
EXTT21=
EXTT22=
EXTT23=
EXTT24=
EXTT25=
PLAYORDER=
